<?xml version="1.0" encoding="utf-8"?>
<!-- Generator: Adobe Illustrator 18.0.0, SVG Export Plug-In . SVG Version: 6.00 Build 0)  -->
<!DOCTYPE svg PUBLIC "-//W3C//DTD SVG 1.1//EN" "http://www.w3.org/Graphics/SVG/1.1/DTD/svg11.dtd">
<svg version="1.1" id="Layer_1" xmlns="http://www.w3.org/2000/svg" xmlns:xlink="http://www.w3.org/1999/xlink" x="0px" y="0px"
   viewBox="0 0 128 69" enable-background="new 0 0 128 69" xml:space="preserve">
<polygon points="89.1,45.1 89.1,28.3 69,28.3 69,44.8 76.2,50.4 52.9,50.4 59.8,45.1 59.8,8.3 52.9,3 76.2,3 69,8.6 69,24.5 
  89.1,24.5 89.1,8.3 82.2,3 105.5,3 98.3,8.6 98.3,44.8 105.5,50.4 82.2,50.4 "/>
<circle cx="121.5" cy="6.9" r="5.5"/>
<polygon points="126.5,19.9 126.5,50.1 110.9,67.6 110.1,67.1 116.5,48.4 116.5,19.9 "/>
<path d="M20.5,45.9c0-3,2.5-5.5,5.5-5.5l0,0c3,0,5.5,2.5,5.5,5.5l0,0c0,3-2.5,5.5-5.5,5.5l0,0C23,51.4,20.5,48.9,20.5,45.9z"/>
<path d="M8.3,44.1C8.3,44.1,8.3,44.1,8.3,44.1L8.3,44.1c-2.1-2.1-2.2-5.6,0-7.8l0,0c2.1-2.2,5.6-2.2,7.8,0l0,0
  c2.2,2.2,2.2,5.6,0,7.8l0,0c-1.1,1.1-2.5,1.6-3.9,1.6l0,0C10.8,45.7,9.4,45.1,8.3,44.1z"/>
<path d="M35.9,44c-2.1-2.1-2.1-5.6,0-7.8l0,0c2.1-2.2,5.6-2.2,7.8,0l0,0c2.1,2.1,2.1,5.6,0,7.8l0,0l0,0l0,0
  c-1.1,1.1-2.5,1.6-3.9,1.6l0,0C38.4,45.7,37,45.1,35.9,44z"/>
<path d="M1,26.4c0-3,2.4-5.5,5.5-5.5l0,0c3,0,5.5,2.5,5.5,5.5l0,0c0,3-2.5,5.5-5.5,5.5l0,0h0l0,0C3.5,31.9,1,29.5,1,26.4z"/>
<path d="M8.3,16.5c-2.2-2.2-2.2-5.6,0-7.8l0,0c2.1-2.2,5.6-2.2,7.8,0l0,0c2.1,2.1,2.2,5.6,0,7.8l0,0c-1.1,1.1-2.5,1.6-3.9,1.6l0,0
  C10.8,18.1,9.4,17.6,8.3,16.5z"/>
<path d="M35.8,16.4c-2.1-2.1-2.2-5.6,0-7.8l0,0c2.1-2.2,5.6-2.2,7.8,0l0,0c2.2,2.1,2.2,5.6,0,7.8l0,0c-1.1,1.1-2.5,1.6-3.9,1.6l0,0
  C38.3,18,36.9,17.5,35.8,16.4z"/>
<path d="M20.4,6.9c0-3,2.4-5.5,5.5-5.5l0,0c3,0,5.5,2.5,5.5,5.5l0,0c0,3-2.5,5.5-5.5,5.5l0,0c0,0,0,0,0,0l0,0
  C22.9,12.4,20.4,9.9,20.4,6.9z"/>
</svg>
