<?xml version="1.0" encoding="utf-8"?>
<!-- Generator: Adobe Illustrator 18.0.0, SVG Export Plug-In . SVG Version: 6.00 Build 0)  -->
<!DOCTYPE svg PUBLIC "-//W3C//DTD SVG 1.1//EN" "http://www.w3.org/Graphics/SVG/1.1/DTD/svg11.dtd">
<svg version="1.1" id="Layer_1" xmlns="http://www.w3.org/2000/svg" xmlns:xlink="http://www.w3.org/1999/xlink" x="0px" y="0px"
   viewBox="0 0 128 69" enable-background="new 0 0 128 69" xml:space="preserve">
<polygon points="89.1,45.1 89.1,28.3 69,28.3 69,44.8 76.2,50.4 52.9,50.4 59.8,45.1 59.8,8.4 52.9,3 76.2,3 69,8.6 69,24.5 
  89.1,24.5 89.1,8.4 82.2,3 105.5,3 98.3,8.6 98.3,44.8 105.5,50.4 82.2,50.4 "/>
<circle cx="121.5" cy="6.9" r="5.5"/>
<polygon points="126.5,19.9 126.5,50.1 110.9,67.6 110.1,67.1 116.5,48.4 116.5,19.9 "/>
<path d="M43.4,52.4L36.5,47c-3.6,3.4-7.8,4.6-12.1,4.6c-13.7,0-22.4-10.1-22.4-23.4C1.9,11.5,11.5,2,26,2c3.3,0,7.5,1.5,10.8,4.6
  l6.6-5.1v21.4c-5.8-9-9.2-16.3-17.8-16.3c-7.9,0-13.4,8.2-13.4,19.6c0,11.4,4.1,21.1,13.5,21.1c9.3,0,14.2-11.4,17.6-16.3V52.4z"/>
</svg>
