<?xml version="1.0" encoding="utf-8"?>
<!-- Generator: Adobe Illustrator 18.0.0, SVG Export Plug-In . SVG Version: 6.00 Build 0)  -->
<!DOCTYPE svg PUBLIC "-//W3C//DTD SVG 1.1//EN" "http://www.w3.org/Graphics/SVG/1.1/DTD/svg11.dtd">
<svg version="1.1" id="Layer_1" xmlns="http://www.w3.org/2000/svg" xmlns:xlink="http://www.w3.org/1999/xlink" x="0px" y="0px"
   viewBox="0 0 160 80" enable-background="new 0 0 160 80" xml:space="preserve">
<path d="M99.9,52.4V35.5H79.8v16.6l7.2,5.5H63.7l6.9-5.3V15.6l-6.9-5.3H87l-7.2,5.6v15.9h20.1V15.6L93,10.3h23.3l-7.2,5.6v36.2
  l7.2,5.5H93L99.9,52.4z"/>
<circle cx="140.6" cy="14.1" r="5.5"/>
<polygon points="145.6,27.1 145.6,57.4 130,74.9 129.1,74.4 135.6,55.6 135.6,35.6 124.7,27.1 135.6,27.1 "/>
<path d="M25.6,53.1c0-3,2.5-5.5,5.5-5.5l0,0c3,0,5.5,2.5,5.5,5.5l0,0c0,3-2.5,5.5-5.5,5.5l0,0C28,58.6,25.6,56.2,25.6,53.1z
   M13.4,51.3C13.4,51.3,13.4,51.3,13.4,51.3L13.4,51.3c-2.1-2.1-2.2-5.6,0-7.8l0,0c2.1-2.2,5.6-2.2,7.8,0l0,0c2.2,2.2,2.2,5.6,0,7.8
  l0,0c-1.1,1.1-2.5,1.6-3.9,1.6l0,0C15.9,53,14.5,52.4,13.4,51.3z M41,51.3c-2.1-2.1-2.1-5.6,0-7.8l0,0c2.1-2.2,5.6-2.2,7.8,0l0,0
  c2.1,2.1,2.1,5.6,0,7.8l0,0l0,0l0,0c-1.1,1.1-2.5,1.6-3.9,1.6l0,0C43.4,52.9,42,52.4,41,51.3z M6,33.7c0-3,2.4-5.5,5.5-5.5l0,0
  c3,0,5.5,2.5,5.5,5.5l0,0c0,3-2.5,5.5-5.5,5.5l0,0h0l0,0C8.5,39.2,6.1,36.7,6,33.7z M13.3,23.8c-2.2-2.2-2.2-5.6,0-7.8l0,0
  c2.1-2.2,5.6-2.2,7.8,0l0,0c2.1,2.1,2.2,5.6,0,7.8l0,0c-1.1,1.1-2.5,1.6-3.9,1.6l0,0C15.8,25.4,14.4,24.9,13.3,23.8z M40.9,23.7
  c-2.1-2.1-2.2-5.6,0-7.8l0,0c2.1-2.2,5.6-2.2,7.8,0l0,0c2.2,2.1,2.2,5.6,0,7.8l0,0c-1.1,1.1-2.5,1.6-3.9,1.6l0,0
  C43.4,25.3,42,24.8,40.9,23.7z M25.5,14.2c0-3,2.4-5.5,5.5-5.5l0,0c3,0,5.5,2.5,5.5,5.5l0,0c0,3-2.5,5.5-5.5,5.5l0,0c0,0,0,0,0,0
  l0,0C28,19.6,25.5,17.2,25.5,14.2z"/>
</svg>
