<?xml version="1.0" encoding="utf-8"?>
<!-- Generator: Adobe Illustrator 18.0.0, SVG Export Plug-In . SVG Version: 6.00 Build 0)  -->
<!DOCTYPE svg PUBLIC "-//W3C//DTD SVG 1.1//EN" "http://www.w3.org/Graphics/SVG/1.1/DTD/svg11.dtd">
<svg version="1.1" id="Layer_2" xmlns="http://www.w3.org/2000/svg" xmlns:xlink="http://www.w3.org/1999/xlink" x="0px" y="0px"
   viewBox="0 0 160 80" enable-background="new 0 0 160 80" xml:space="preserve">
<circle cx="140.6" cy="14.1" r="5.5"/>
<polygon points="145.6,27.1 145.6,57.4 130,74.9 129.1,74.4 135.6,55.6 135.6,27.1 "/>
<g>
  <path d="M47.3,60.6l-6.9-5.4c-3.6,3.4-7.8,4.6-12.1,4.6c-13.7,0-22.4-10.1-22.4-23.4c0-16.6,9.6-26.2,24.1-26.2
    c3.3,0,7.5,1.5,10.8,4.6l6.6-5.1v21.4c-5.8-9-9.2-16.3-17.8-16.3c-7.9,0-13.4,8.2-13.4,19.6c0,11.4,4.1,21.1,13.5,21.1
    c9.3,0,14.2-11.4,17.6-16.3V60.6z"/>
</g>
<polygon points="98,11.3 98,28.9 82,28.9 82,11.3 68,11.3 68,58.6 82,58.6 82,40.9 98,40.9 98,58.6 112,58.6 112,11.3 "/>
</svg>
