<?xml version="1.0" encoding="utf-8"?>
<!-- Generator: Adobe Illustrator 18.0.0, SVG Export Plug-In . SVG Version: 6.00 Build 0)  -->
<!DOCTYPE svg PUBLIC "-//W3C//DTD SVG 1.1//EN" "http://www.w3.org/Graphics/SVG/1.1/DTD/svg11.dtd">
<svg version="1.1" id="Layer_1" xmlns="http://www.w3.org/2000/svg" xmlns:xlink="http://www.w3.org/1999/xlink" x="0px" y="0px"
   viewBox="0 0 125 66.3" enable-background="new 0 0 125 66.3" xml:space="preserve">
<polygon points="88.1,43.7 88.1,26.9 68,26.9 68,43.5 75.2,49 51.9,49 58.8,43.7 58.8,7 51.9,1.6 75.2,1.6 68,7.2 68,23.1 
  88.1,23.1 88.1,7 81.2,1.6 104.5,1.6 97.3,7.2 97.3,43.5 104.5,49 81.2,49 "/>
<circle cx="119.5" cy="5.5" r="5.5"/>
<polygon points="124.5,18.5 124.5,48.8 109,66.3 108.1,65.8 114.5,47 114.5,18.5 "/>
<path d="M19.5,44.5c0-3,2.5-5.5,5.5-5.5l0,0c3,0,5.5,2.5,5.5,5.5l0,0c0,3-2.5,5.5-5.5,5.5l0,0C22,50,19.5,47.5,19.5,44.5z"/>
<path d="M7.3,42.7L7.3,42.7L7.3,42.7c-2.1-2.1-2.2-5.6,0-7.8l0,0c2.1-2.1,5.6-2.2,7.8,0v0c2.2,2.2,2.2,5.6,0,7.8l0,0
  c-1.1,1.1-2.5,1.6-3.9,1.6l0,0C9.8,44.3,8.4,43.8,7.3,42.7z"/>
<path d="M34.9,42.7c-2.1-2.1-2.1-5.6,0-7.8l0,0c2.1-2.1,5.6-2.2,7.8,0l0,0c2.1,2.2,2.1,5.6,0,7.8l0,0c-1.1,1.1-2.5,1.6-3.9,1.6l0,0
  C37.4,44.3,36,43.7,34.9,42.7z"/>
<path d="M0,25.1c0-3,2.4-5.5,5.5-5.5l0,0c3,0,5.5,2.4,5.5,5.5l0,0c0,3-2.5,5.5-5.5,5.5l0,0h0l0,0C2.5,30.5,0,28.1,0,25.1z"/>
<path d="M7.3,15.2c-2.2-2.1-2.2-5.6,0-7.8l0,0l0,0l0,0c2.1-2.2,5.6-2.2,7.8,0l0,0c2.2,2.1,2.2,5.6,0,7.8l0,0
  c-1.1,1.1-2.5,1.6-3.9,1.6l0,0C9.8,16.8,8.4,16.2,7.3,15.2z"/>
<path d="M34.9,15.1c-2.1-2.1-2.2-5.6,0-7.8l0,0c2.1-2.2,5.6-2.2,7.8,0l0,0c2.2,2.1,2.2,5.6,0,7.8l0,0c-1.1,1.1-2.5,1.6-3.9,1.6l0,0
  C37.3,16.7,35.9,16.1,34.9,15.1z"/>
<path d="M19.4,5.5c0-3,2.4-5.5,5.5-5.5l0,0c3,0,5.5,2.4,5.5,5.5l0,0c0,3-2.5,5.5-5.5,5.5l0,0h0l0,0C21.9,11,19.4,8.6,19.4,5.5z"/>
</svg>
