<?xml version="1.0" encoding="utf-8"?>
<!-- Generator: Adobe Illustrator 18.0.0, SVG Export Plug-In . SVG Version: 6.00 Build 0)  -->
<!DOCTYPE svg PUBLIC "-//W3C//DTD SVG 1.1//EN" "http://www.w3.org/Graphics/SVG/1.1/DTD/svg11.dtd">
<svg version="1.1" id="Layer_2" xmlns="http://www.w3.org/2000/svg" xmlns:xlink="http://www.w3.org/1999/xlink" x="0px" y="0px"
   viewBox="0 0 160 80" enable-background="new 0 0 160 80" xml:space="preserve">
<path d="M99.9,52.4V35.5H79.8v16.6l7.2,5.5H63.7l6.9-5.3V15.6l-6.9-5.3H87l-7.2,5.6v15.9h20.1V15.6L93,10.3h23.3l-7.2,5.6v36.2
  l7.2,5.5H93L99.9,52.4z"/>
<g>
  <path d="M49.3,59.6l-6.9-5.4c-3.6,3.4-7.8,4.6-12.1,4.6c-13.7,0-22.4-10.1-22.4-23.4c0-16.6,9.6-26.2,24.1-26.2
    c3.3,0,7.5,1.5,10.8,4.6l6.6-5.1v21.4c-5.8-9-9.2-16.3-17.8-16.3c-7.9,0-13.4,8.2-13.4,19.6c0,11.4,4.1,21.1,13.5,21.1
    c9.3,0,14.2-11.4,17.6-16.3V59.6z"/>
</g>
<circle cx="140.6" cy="14.1" r="5.5"/>
<path d="M128.4,63.6c7.3,0,7.1-6.6,7.1-10.1c0-11.2,0-22.4,0-22.4h10c0,0,0,11.2,0,22.4c0,7.9-0.8,20.1-16.9,20.1L128.4,63.6z"/>
</svg>
