<?xml version="1.0" encoding="utf-8"?>
<!-- Generator: Adobe Illustrator 18.0.0, SVG Export Plug-In . SVG Version: 6.00 Build 0)  -->
<!DOCTYPE svg PUBLIC "-//W3C//DTD SVG 1.1//EN" "http://www.w3.org/Graphics/SVG/1.1/DTD/svg11.dtd">
<svg version="1.1" id="Layer_2" xmlns="http://www.w3.org/2000/svg" xmlns:xlink="http://www.w3.org/1999/xlink" x="0px" y="0px"
   viewBox="0 0 160 80" enable-background="new 0 0 160 80" xml:space="preserve">
<circle cx="140.6" cy="14.1" r="5.5"/>
<polygon points="145.6,27.1 145.6,57.4 130,74.9 129.1,74.4 135.6,55.6 135.6,35.6 124.7,27.1 135.6,27.1 "/>
<path d="M99.9,52.4V35.5H79.8v16.6l7.2,5.5H63.7l6.9-5.3V15.6l-6.9-5.3H87l-7.2,5.6v15.9h20.1V15.6L93,10.3h23.3l-7.2,5.6v36.2
  l7.2,5.5H93L99.9,52.4z"/>
<path d="M54.7,42c0,0-4.5,16.4-23.1,16.4c-16.4,0-24.6-14-24.6-24c0-11.5,7.7-25,24.7-25s22.6,15.6,22.6,15.6l-9.3,3.6
  c0,0-2.8-10.2-13.4-10.2s-14.5,9.2-14.5,15.8s4.7,15.2,14.2,15.2c11.6,0,13.9-11,13.9-11L54.7,42z"/>
</svg>
